{"glyphs":{"0":{"ha":879,"x_min":67,"x_max":813,"o":"m 440 -15 q 171 96 275 -15 q 67 379 67 207 l 67 608 q 171 892 67 781 q 440 1003 275 1003 q 708 892 604 1003 q 813 608 813 781 l 813 379 q 708 96 813 207 q 440 -15 604 -15 m 440 192 q 558 242 514 192 q 603 379 603 292 l 603 608 q 558 746 603 696 q 440 796 514 796 q 321 746 365 796 q 276 608 276 696 l 276 379 q 321 242 276 292 q 440 192 365 192 z "},"1":{"ha":528,"x_min":0,"x_max":424,"o":"m 214 0 l 214 779 l 0 779 l 150 986 l 424 986 l 424 0 l 214 0 z "},"2":{"ha":801,"x_min":54,"x_max":735,"o":"m 735 207 l 735 0 l 54 0 l 54 71 q 63 149 54 111 q 82 216 71 188 q 117 275 93 244 q 157 325 140 306 q 207 372 174 344 q 258 412 240 399 q 315 452 276 425 q 369 490 354 479 q 518 679 518 596 q 488 763 518 731 q 401 796 458 796 q 305 760 342 796 q 268 672 268 724 l 58 672 q 158 910 58 817 q 408 1003 257 1003 q 635 922 542 1003 q 728 694 728 840 q 699 543 728 610 q 631 436 669 476 q 525 346 592 396 q 470 310 522 344 q 390 253 418 276 q 350 207 363 229 l 735 207 z "},"3":{"ha":819,"x_min":44,"x_max":763,"o":"m 415 -15 q 158 74 267 -15 q 44 325 50 164 l 253 325 q 303 225 260 258 q 415 192 346 192 q 513 222 476 192 q 551 300 550 251 q 513 386 553 353 q 406 419 472 419 l 319 419 l 319 588 l 394 588 q 524 694 521 588 q 493 767 525 739 q 411 796 461 796 q 311 760 350 796 q 274 672 272 724 l 64 672 q 169 913 64 822 q 411 1003 274 1003 q 649 919 563 1003 q 735 713 735 835 q 705 590 735 646 q 632 500 675 533 q 725 417 688 472 q 763 282 763 361 q 666 68 763 151 q 415 -15 569 -15 z "},"4":{"ha":893,"x_min":25,"x_max":843,"o":"m 507 0 l 507 214 l 25 214 l 25 383 l 528 986 l 717 986 l 717 406 l 843 406 l 843 214 l 717 214 l 717 0 l 507 0 m 281 406 l 507 406 l 507 676 l 281 406 z "},"5":{"ha":800,"x_min":42,"x_max":746,"o":"m 399 -15 q 153 72 258 -15 q 42 292 47 158 l 258 292 q 308 219 269 247 q 399 192 347 192 q 500 229 464 192 q 536 328 536 267 q 497 425 536 386 q 400 464 458 464 q 308 435 346 464 q 254 361 271 407 l 72 418 l 186 986 l 671 986 l 671 783 l 347 783 l 314 626 q 440 653 363 653 q 663 558 579 653 q 746 313 746 464 q 652 72 746 160 q 399 -15 558 -15 z "},"6":{"ha":794,"x_min":47,"x_max":742,"o":"m 647 82 q 600 33 647 82 q 394 -15 553 -15 q 142 82 236 -15 q 47 329 47 179 q 63 420 47 376 q 97 494 78 464 q 164 594 115 524 l 439 986 l 697 986 l 456 642 q 655 548 568 632 q 742 328 742 464 q 647 82 742 179 m 394 186 q 492 226 453 186 q 531 325 531 267 q 492 424 531 383 q 394 464 453 464 q 296 424 333 464 q 258 325 258 385 q 296 226 258 265 q 394 186 333 186 z "},"7":{"ha":767,"x_min":49,"x_max":747,"o":"m 294 0 l 57 0 l 499 783 l 49 783 l 49 986 l 747 986 l 747 804 l 294 0 z "},"8":{"ha":822,"x_min":56,"x_max":767,"o":"m 411 -15 q 157 75 258 -15 q 56 304 56 165 q 174 536 56 461 q 94 732 94 611 q 181 926 94 850 q 411 1003 268 1003 q 641 926 554 1003 q 728 732 728 850 q 647 536 728 613 q 767 304 767 460 q 665 75 767 165 q 411 -15 563 -15 m 411 178 q 512 217 474 178 q 550 310 550 257 q 512 402 550 363 q 411 442 474 442 q 310 402 347 442 q 272 310 272 363 q 310 217 272 257 q 411 178 347 178 m 330 637 q 346 622 330 637 q 411 607 363 607 q 492 637 460 607 q 525 713 525 667 q 492 788 525 758 q 411 818 460 818 q 330 788 363 818 q 297 713 297 758 q 330 637 297 667 z "},"9":{"ha":794,"x_min":53,"x_max":747,"o":"m 96 0 l 338 344 q 139 438 225 354 q 53 660 53 522 q 147 906 53 808 q 400 1003 242 1003 q 653 906 558 1003 q 747 658 747 808 q 722 540 747 592 q 631 393 697 489 l 354 0 l 96 0 m 400 524 q 499 563 461 524 q 536 663 536 603 q 499 762 536 722 q 400 801 461 801 q 303 761 342 801 q 264 663 264 721 q 303 564 264 604 q 400 524 342 524 z "}," ":{"ha":313,"x_min":0,"x_max":0,"o":""},"!":{"ha":406,"x_min":54,"x_max":351,"o":"m 138 368 l 97 624 l 97 986 l 308 986 l 308 624 l 267 368 l 138 368 m 308 33 q 286 11 308 33 q 203 -11 264 -11 q 98 33 142 -11 q 54 138 54 76 q 98 242 54 199 q 203 286 142 286 q 308 242 264 286 q 351 138 351 199 q 308 33 351 76 z "},",":{"ha":401,"x_min":38,"x_max":349,"o":"m 318 42 l 158 -215 l 38 -215 l 142 0 q 78 52 104 14 q 51 138 51 90 q 95 242 51 199 q 200 286 139 286 q 305 242 261 286 q 349 138 349 199 q 318 42 349 96 z "},"-":{"ha":561,"x_min":76,"x_max":485,"o":"m 76 289 l 76 489 l 485 489 l 485 289 l 76 289 z "},":":{"ha":425,"x_min":64,"x_max":361,"o":"m 317 458 q 295 436 317 458 q 213 414 274 414 q 108 458 151 414 q 64 563 64 501 q 108 667 64 624 q 213 711 151 711 q 317 667 274 711 q 361 563 361 624 q 317 458 361 501 m 317 33 q 295 11 317 33 q 213 -11 274 -11 q 108 33 151 -11 q 64 138 64 76 q 108 242 64 199 q 213 286 151 286 q 317 242 274 286 q 361 138 361 199 q 317 33 361 76 z "},"Ё":{"ha":793,"x_min":104,"x_max":729,"o":"m 104 0 l 104 986 l 729 986 l 729 775 l 325 775 l 325 599 l 646 599 l 646 388 l 325 388 l 325 211 l 729 211 l 729 0 l 104 0 m 251 1067 q 172 1100 206 1067 q 139 1178 139 1133 q 172 1258 139 1225 q 251 1290 204 1290 q 328 1257 296 1290 q 361 1178 361 1224 q 328 1100 361 1133 q 251 1067 296 1067 m 659 1100 q 643 1083 659 1100 q 581 1067 626 1067 q 502 1100 535 1067 q 469 1178 469 1133 q 502 1258 469 1225 q 581 1290 535 1290 q 659 1258 626 1290 q 692 1178 692 1225 q 659 1100 692 1133 z "},"А":{"ha":1042,"x_min":-1,"x_max":1043,"o":"m -1 0 l 421 986 l 621 986 l 1043 0 l 813 0 l 725 208 l 317 208 l 229 0 l -1 0 m 521 696 l 396 400 l 644 400 l 521 696 z "},"Б":{"ha":889,"x_min":104,"x_max":851,"o":"m 326 628 l 514 628 q 756 539 660 628 q 851 314 851 450 q 756 89 851 178 q 514 0 660 0 l 104 0 l 104 986 l 768 986 l 768 775 l 326 775 l 326 628 m 601 233 q 619 248 601 233 q 636 314 636 263 q 601 395 636 365 q 511 425 567 425 l 326 425 l 326 204 l 511 204 q 601 233 567 204 z "},"В":{"ha":882,"x_min":104,"x_max":838,"o":"m 104 0 l 104 986 l 475 986 q 682 901 596 986 q 768 693 768 815 q 697 524 768 594 q 799 429 761 490 q 838 290 838 368 q 751 84 838 168 q 538 0 665 0 l 104 0 m 325 203 l 519 203 q 593 231 564 203 q 622 301 622 260 q 592 372 622 343 q 518 400 563 400 l 325 400 l 325 203 m 325 588 l 450 588 q 524 615 494 588 q 553 685 553 643 q 524 756 553 726 q 450 785 494 785 l 325 785 l 325 588 z "},"Г":{"ha":726,"x_min":104,"x_max":694,"o":"m 694 986 l 694 775 l 326 775 l 326 0 l 104 0 l 104 986 l 694 986 z "},"Д":{"ha":1082,"x_min":39,"x_max":1040,"o":"m 842 -206 l 842 0 l 238 0 l 238 -206 l 39 -206 l 39 211 l 56 211 q 181 475 181 211 l 181 986 l 913 986 l 913 211 l 1040 211 l 1040 -206 l 842 -206 m 403 775 l 403 457 q 353 211 403 306 l 690 211 l 690 775 l 403 775 z "},"Е":{"ha":793,"x_min":104,"x_max":729,"o":"m 104 0 l 104 986 l 729 986 l 729 775 l 325 775 l 325 599 l 646 599 l 646 388 l 325 388 l 325 211 l 729 211 l 729 0 l 104 0 z "},"Ж":{"ha":1438,"x_min":-26,"x_max":1464,"o":"m 1192 0 l 829 426 l 829 0 l 607 0 l 607 425 l 246 0 l -26 0 l 396 501 l 17 986 l 276 986 l 607 560 l 607 986 l 829 986 l 829 558 l 1161 986 l 1421 986 l 1040 501 l 1464 0 l 1192 0 z "},"З":{"ha":803,"x_min":21,"x_max":751,"o":"m 161 725 l 43 881 q 394 1003 185 1003 q 626 932 533 1003 q 718 733 718 861 q 626 524 718 596 q 751 293 751 443 q 649 68 751 151 q 396 -15 547 -15 q 21 161 157 -15 l 179 296 q 393 192 264 192 q 500 224 464 192 q 536 310 536 257 q 500 386 536 358 q 394 414 464 414 l 243 414 l 243 600 l 381 600 q 472 627 440 600 q 504 699 504 654 q 365 800 504 800 q 161 725 254 800 z "},"И":{"ha":1100,"x_min":104,"x_max":996,"o":"m 294 0 l 104 0 l 104 986 l 326 986 l 326 376 l 806 986 l 996 986 l 996 0 l 775 0 l 775 610 l 294 0 z "},"Й":{"ha":1100,"x_min":104,"x_max":996,"o":"m 294 0 l 104 0 l 104 986 l 326 986 l 326 376 l 806 986 l 996 986 l 996 0 l 775 0 l 775 610 l 294 0 m 740 1106 q 705 1072 740 1106 q 564 1038 669 1038 q 388 1106 458 1038 q 317 1288 317 1175 l 450 1288 q 481 1194 450 1229 q 564 1158 511 1158 q 647 1194 617 1158 q 678 1288 678 1229 l 811 1288 q 740 1106 811 1175 z "},"К":{"ha":972,"x_min":104,"x_max":1008,"o":"m 725 0 l 324 442 l 324 0 l 104 0 l 104 986 l 324 986 l 324 574 l 658 986 l 929 986 l 540 513 l 1008 0 l 725 0 z "},"Л":{"ha":1038,"x_min":28,"x_max":933,"o":"m 201 363 l 201 986 l 933 986 l 933 0 l 711 0 l 711 775 l 424 775 l 424 336 q 347 76 424 168 q 126 -17 269 -15 q 28 -10 61 -14 l 28 194 q 94 190 49 190 q 175 227 149 190 q 201 363 201 264 z "},"М":{"ha":1228,"x_min":104,"x_max":1124,"o":"m 104 986 l 306 986 l 613 561 l 922 986 l 1124 986 l 1124 0 l 901 0 l 901 607 l 614 210 l 325 608 l 325 0 l 104 0 l 104 986 z "},"Н":{"ha":1047,"x_min":104,"x_max":943,"o":"m 104 0 l 104 986 l 325 986 l 325 600 l 722 600 l 722 986 l 943 986 l 943 0 l 722 0 l 722 390 l 325 390 l 325 0 l 104 0 z "},"О":{"ha":1117,"x_min":49,"x_max":1068,"o":"m 355 285 q 397 241 355 285 q 558 197 439 197 q 761 285 678 197 q 844 493 844 372 q 761 701 844 614 q 558 789 678 789 q 355 701 439 789 q 271 493 271 614 q 355 285 271 372 m 919 133 q 844 58 919 133 q 558 -17 769 -17 q 198 133 347 -17 q 49 493 49 282 q 198 853 49 704 q 558 1003 347 1003 q 919 853 769 1003 q 1068 493 1068 703 q 919 133 1068 283 z "},"П":{"ha":1040,"x_min":104,"x_max":936,"o":"m 714 0 l 714 775 l 326 775 l 326 0 l 104 0 l 104 986 l 936 986 l 936 0 l 714 0 z "},"Р":{"ha":824,"x_min":104,"x_max":786,"o":"m 687 889 q 736 840 687 889 q 786 649 786 792 q 687 409 786 506 q 439 313 588 313 l 325 313 l 325 0 l 104 0 l 104 986 l 439 986 q 687 889 588 986 m 572 649 q 534 741 572 704 q 436 778 496 778 l 325 778 l 325 519 l 436 519 q 533 557 494 519 q 572 649 572 594 z "},"С":{"ha":1044,"x_min":49,"x_max":1019,"o":"m 558 -17 q 198 133 347 -17 q 49 493 49 282 q 198 853 49 704 q 558 1003 347 1003 q 832 929 710 1003 q 1019 733 954 856 l 825 628 q 558 789 736 789 q 355 701 439 789 q 271 493 271 614 q 355 285 271 372 q 558 197 439 197 q 825 358 736 197 l 1019 253 q 832 57 954 131 q 558 -17 710 -17 z "},"Т":{"ha":789,"x_min":31,"x_max":758,"o":"m 282 0 l 282 775 l 31 775 l 31 986 l 758 986 l 758 775 l 504 775 l 504 0 l 282 0 z "},"У":{"ha":1015,"x_min":22,"x_max":1026,"o":"m 182 -7 l 182 199 q 274 193 217 193 q 404 247 363 193 l 22 986 l 275 986 l 531 492 l 774 986 l 1026 986 l 660 251 q 506 46 588 108 q 306 -17 424 -17 q 182 -7 239 -17 z "},"Ф":{"ha":1258,"x_min":47,"x_max":1211,"o":"m 740 -42 l 518 -42 l 518 79 q 174 188 300 79 q 47 499 47 297 q 174 807 47 697 q 518 917 301 917 l 518 1028 l 740 1028 l 740 917 q 1084 807 957 917 q 1211 499 1211 697 q 1085 188 1211 297 q 740 79 958 79 l 740 -42 m 740 718 l 740 279 q 988 500 988 279 q 740 718 988 718 m 518 279 l 518 718 q 271 500 271 718 q 518 279 271 279 z "},"Х":{"ha":978,"x_min":-12,"x_max":990,"o":"m 246 0 l -12 0 l 357 499 l 10 986 l 265 986 l 489 669 l 713 986 l 968 986 l 622 499 l 990 0 l 733 0 l 489 326 l 246 0 z "},"Ц":{"ha":1072,"x_min":104,"x_max":1031,"o":"m 901 211 l 1031 211 l 1031 -206 l 832 -206 l 832 0 l 104 0 l 104 986 l 326 986 l 326 211 l 679 211 l 679 986 l 901 986 l 901 211 z "},"Ч":{"ha":954,"x_min":60,"x_max":850,"o":"m 850 0 l 628 0 l 628 422 q 396 331 544 331 q 156 422 253 331 q 60 656 60 513 l 60 986 l 282 986 l 282 715 q 442 544 282 544 q 576 597 525 544 q 628 753 628 649 l 628 986 l 850 986 l 850 0 z "},"Ш":{"ha":1356,"x_min":104,"x_max":1251,"o":"m 104 0 l 104 986 l 326 986 l 326 211 l 567 211 l 567 986 l 789 986 l 789 211 l 1029 211 l 1029 986 l 1251 986 l 1251 0 l 104 0 z "},"Щ":{"ha":1422,"x_min":104,"x_max":1381,"o":"m 1182 -206 l 1182 0 l 104 0 l 104 986 l 326 986 l 326 211 l 567 211 l 567 986 l 789 986 l 789 211 l 1029 211 l 1029 986 l 1251 986 l 1251 211 l 1381 211 l 1381 -206 l 1182 -206 z "},"Ъ":{"ha":1028,"x_min":31,"x_max":988,"o":"m 492 642 l 650 642 q 892 551 796 642 q 988 321 988 461 q 891 91 988 182 q 650 0 794 0 l 269 0 l 269 775 l 31 775 l 31 986 l 492 986 l 492 642 m 492 204 l 647 204 q 738 234 704 204 q 772 321 772 264 q 738 408 772 378 q 647 438 703 438 l 492 438 l 492 204 z "},"Ы":{"ha":1268,"x_min":104,"x_max":1164,"o":"m 943 0 l 943 986 l 1164 986 l 1164 0 l 943 0 m 326 642 l 485 642 q 726 551 631 642 q 822 321 822 461 q 726 91 822 182 q 485 0 629 0 l 104 0 l 104 986 l 326 986 l 326 642 m 326 204 l 482 204 q 573 234 539 204 q 607 321 607 264 q 573 408 607 378 q 482 438 539 438 l 326 438 l 326 204 z "},"Ь":{"ha":863,"x_min":104,"x_max":822,"o":"m 326 642 l 485 642 q 726 551 631 642 q 822 321 822 461 q 726 91 822 182 q 485 0 629 0 l 104 0 l 104 986 l 326 986 l 326 642 m 326 204 l 482 204 q 573 234 539 204 q 607 321 607 264 q 573 408 607 378 q 482 438 539 438 l 326 438 l 326 204 z "},"Э":{"ha":1051,"x_min":32,"x_max":1003,"o":"m 493 -19 q 219 54 342 -19 q 32 250 97 128 l 226 356 q 493 194 315 194 q 662 251 588 194 q 765 394 736 307 l 369 394 l 369 589 l 764 589 q 660 730 735 674 q 493 786 586 786 q 226 625 315 786 l 32 731 q 219 926 97 853 q 493 1000 342 1000 q 853 851 704 1000 q 1003 490 1003 701 q 853 130 1003 279 q 493 -19 704 -19 z "},"Ю":{"ha":1500,"x_min":104,"x_max":1449,"o":"m 104 0 l 104 986 l 326 986 l 326 596 l 468 596 q 635 890 501 776 q 954 1003 768 1003 q 1308 858 1167 1003 q 1449 493 1449 714 q 1308 128 1449 272 q 954 -17 1167 -17 q 635 96 768 -17 q 468 390 501 208 l 326 390 l 326 0 l 104 0 m 1149 280 q 1187 321 1149 280 q 1225 493 1225 363 q 1149 706 1225 624 q 954 789 1074 789 q 759 706 835 789 q 683 493 683 624 q 759 280 683 363 q 954 197 835 197 q 1149 280 1074 197 z "},"Я":{"ha":907,"x_min":-33,"x_max":803,"o":"m 581 0 l 581 325 l 524 325 l 232 0 l -33 0 l 294 372 q 165 488 213 414 q 117 656 117 561 q 209 893 117 800 q 454 986 301 986 l 803 986 l 803 0 l 581 0 m 366 749 q 348 732 366 749 q 331 656 331 714 q 366 562 331 597 q 456 526 401 526 l 581 526 l 581 785 l 456 785 q 366 749 401 785 z "},"а":{"ha":851,"x_min":44,"x_max":765,"o":"m 367 -15 q 138 92 232 -15 q 44 347 44 199 q 138 603 44 496 q 367 710 232 710 q 556 625 486 710 l 556 694 l 765 694 l 765 0 l 556 0 l 556 69 q 367 -15 486 -15 m 299 224 q 321 199 299 224 q 414 175 343 175 q 528 224 485 175 q 572 347 572 272 q 528 471 572 422 q 414 519 485 519 q 299 471 343 519 q 256 347 256 422 q 299 224 256 272 z "},"б":{"ha":835,"x_min":63,"x_max":789,"o":"m 425 -15 q 155 99 247 -15 q 63 419 63 213 l 63 451 q 169 841 63 717 q 489 1004 276 965 l 728 1047 l 728 849 l 535 814 q 357 746 421 793 q 281 610 293 699 q 465 674 356 674 q 702 581 615 674 q 789 347 789 488 q 683 90 789 194 q 425 -15 578 -15 m 313 222 q 334 201 313 222 q 424 181 356 181 q 535 222 492 181 q 578 342 578 264 q 535 447 578 403 q 424 492 492 492 q 313 447 356 492 q 271 342 271 403 q 313 222 271 264 z "},"в":{"ha":776,"x_min":86,"x_max":735,"o":"m 86 0 l 86 694 l 426 694 q 624 630 557 694 q 690 481 690 565 q 651 369 690 418 q 735 214 735 306 q 672 64 735 128 q 479 0 608 0 l 86 0 m 296 169 l 464 169 q 508 185 490 169 q 526 229 526 201 q 508 272 526 257 q 464 288 490 288 l 296 288 l 296 169 m 296 425 l 422 425 q 482 481 482 425 q 422 536 482 536 l 296 536 l 296 425 z "},"г":{"ha":601,"x_min":86,"x_max":576,"o":"m 86 0 l 86 694 l 576 694 l 576 513 l 296 513 l 296 0 l 86 0 z "},"д":{"ha":917,"x_min":39,"x_max":878,"o":"m 39 182 l 57 182 q 154 349 154 182 l 154 694 l 764 694 l 764 182 l 878 182 l 878 -169 l 692 -169 l 692 0 l 225 0 l 225 -169 l 39 -169 l 39 182 m 364 513 l 364 340 q 332 182 364 239 l 554 182 l 554 513 l 364 513 z "},"е":{"ha":801,"x_min":44,"x_max":756,"o":"m 414 -15 q 151 84 257 -15 q 44 347 44 183 q 149 606 44 503 q 410 710 253 710 q 656 621 556 710 q 756 371 756 532 q 751 297 756 331 l 247 297 q 304 206 256 238 q 417 175 353 175 q 518 198 474 175 q 585 254 563 221 l 740 138 q 606 26 690 67 q 414 -15 521 -15 m 253 435 l 547 435 q 494 513 535 486 q 404 539 454 539 q 308 513 351 539 q 253 435 265 488 z "},"ж":{"ha":1161,"x_min":-18,"x_max":1179,"o":"m 922 0 l 686 269 l 686 0 l 476 0 l 476 271 l 239 0 l -18 0 l 293 353 l 28 694 l 268 694 l 476 421 l 476 694 l 686 694 l 686 422 l 893 694 l 1133 694 l 868 353 l 1179 0 l 922 0 z "},"з":{"ha":669,"x_min":18,"x_max":626,"o":"m 324 -15 q 18 131 121 -15 l 157 231 q 303 156 211 156 q 415 224 415 156 q 329 286 415 286 l 231 286 l 231 425 l 321 425 q 400 483 400 425 q 378 527 400 510 q 311 544 356 544 q 160 478 224 544 l 44 597 q 324 710 161 710 q 455 690 399 710 q 541 637 511 669 q 585 570 571 604 q 599 501 599 536 q 536 367 599 415 q 626 207 626 310 q 549 53 626 122 q 324 -15 472 -15 z "},"и":{"ha":858,"x_min":86,"x_max":772,"o":"m 274 0 l 86 0 l 86 694 l 296 694 l 296 311 l 585 694 l 772 694 l 772 0 l 564 0 l 564 382 l 274 0 z "},"й":{"ha":858,"x_min":86,"x_max":772,"o":"m 274 0 l 86 0 l 86 694 l 296 694 l 296 311 l 585 694 l 772 694 l 772 0 l 564 0 l 564 382 l 274 0 m 618 835 q 583 801 618 835 q 442 767 547 767 q 265 835 336 767 q 194 1014 194 904 l 194 1042 l 328 1042 l 328 1014 q 360 919 328 953 q 442 886 392 886 q 524 919 492 886 q 556 1014 556 953 l 556 1042 l 689 1042 l 689 1014 q 618 835 689 904 z "},"к":{"ha":776,"x_min":86,"x_max":803,"o":"m 538 0 l 296 269 l 296 0 l 86 0 l 86 694 l 296 694 l 296 421 l 511 694 l 757 694 l 482 351 l 803 0 l 538 0 z "},"л":{"ha":857,"x_min":26,"x_max":771,"o":"m 124 -15 q 26 -8 60 -15 l 26 169 q 75 167 57 167 q 140 192 119 167 q 161 283 161 217 l 161 694 l 771 694 l 771 0 l 561 0 l 561 513 l 371 513 l 371 261 q 299 54 371 124 q 124 -15 226 -15 z "},"м":{"ha":964,"x_min":86,"x_max":878,"o":"m 86 694 l 261 694 l 482 421 l 703 694 l 878 694 l 878 0 l 668 0 l 668 374 l 482 144 l 296 374 l 296 0 l 86 0 l 86 694 z "},"н":{"ha":853,"x_min":86,"x_max":767,"o":"m 86 0 l 86 694 l 296 694 l 296 439 l 557 439 l 557 694 l 767 694 l 767 0 l 557 0 l 557 257 l 296 257 l 296 0 l 86 0 z "},"о":{"ha":817,"x_min":43,"x_max":774,"o":"m 667 90 q 613 37 667 90 q 408 -15 560 -15 q 150 90 257 -15 q 43 347 43 194 q 150 605 43 500 q 408 710 257 710 q 667 605 560 710 q 774 347 774 500 q 667 90 774 194 m 298 226 q 320 203 298 226 q 408 181 342 181 q 519 226 475 181 q 563 347 563 272 q 519 468 563 422 q 408 514 475 514 q 298 468 342 514 q 254 347 254 422 q 298 226 254 272 z "},"п":{"ha":839,"x_min":86,"x_max":753,"o":"m 86 0 l 86 694 l 753 694 l 753 0 l 543 0 l 543 513 l 296 513 l 296 0 l 86 0 z "},"р":{"ha":851,"x_min":86,"x_max":807,"o":"m 296 -290 l 86 -290 l 86 694 l 296 694 l 296 625 q 369 684 318 658 q 485 710 421 710 q 713 603 619 710 q 807 347 807 496 q 713 92 807 199 q 485 -15 619 -15 q 369 10 421 -15 q 296 69 318 36 l 296 -290 m 323 224 q 345 199 323 224 q 438 175 367 175 q 552 224 508 175 q 596 347 596 272 q 552 471 596 422 q 438 519 508 519 q 323 471 367 519 q 279 347 279 422 q 323 224 279 272 z "},"с":{"ha":772,"x_min":44,"x_max":746,"o":"m 414 -15 q 151 88 258 -15 q 44 347 44 190 q 151 607 44 504 q 414 710 258 710 q 611 654 521 710 q 746 507 701 599 l 563 410 q 414 514 517 514 q 301 467 347 514 q 256 347 256 419 q 301 228 256 275 q 414 181 347 181 q 563 285 517 181 l 746 188 q 611 40 701 96 q 414 -15 521 -15 z "},"т":{"ha":643,"x_min":25,"x_max":618,"o":"m 210 0 l 210 513 l 25 513 l 25 694 l 618 694 l 618 513 l 419 513 l 419 0 l 210 0 z "},"у":{"ha":800,"x_min":0,"x_max":803,"o":"m 803 694 l 464 -78 q 343 -249 413 -194 q 167 -303 274 -303 q 71 -297 106 -303 l 71 -119 q 139 -122 113 -122 q 258 -28 215 -122 l 289 40 l 0 694 l 229 694 l 408 285 l 572 694 l 803 694 z "},"ф":{"ha":1074,"x_min":44,"x_max":1029,"o":"m 642 -290 l 432 -290 l 432 -15 l 415 -15 q 144 90 243 -15 q 44 347 44 196 q 144 604 44 499 q 415 710 243 710 l 432 710 l 432 1042 l 642 1042 l 642 710 l 658 710 q 930 604 831 710 q 1029 347 1029 499 q 930 90 1029 196 q 658 -15 831 -15 l 642 -15 l 642 -290 m 658 518 l 642 518 l 642 176 l 658 176 q 774 226 731 176 q 818 347 818 275 q 774 469 818 419 q 658 518 731 518 m 432 176 l 432 518 l 415 518 q 299 469 343 518 q 256 347 256 419 q 299 226 256 275 q 415 176 343 176 l 432 176 z "},"х":{"ha":801,"x_min":3,"x_max":799,"o":"m 549 0 l 401 189 l 254 0 l 3 0 l 269 336 l 6 694 l 253 694 l 400 492 l 547 694 l 797 694 l 533 336 l 799 0 l 549 0 z "},"ц":{"ha":906,"x_min":86,"x_max":871,"o":"m 871 182 l 871 -169 l 685 -169 l 685 0 l 86 0 l 86 694 l 296 694 l 296 182 l 544 182 l 544 694 l 754 694 l 754 182 l 871 182 z "},"ч":{"ha":790,"x_min":47,"x_max":704,"o":"m 704 0 l 494 0 l 494 269 q 422 222 472 242 q 307 203 371 203 q 120 272 193 203 q 47 481 47 342 l 47 694 l 257 694 l 257 506 q 368 386 257 386 q 458 421 421 386 q 494 529 494 456 l 494 694 l 704 694 l 704 0 z "},"ш":{"ha":1163,"x_min":86,"x_max":1076,"o":"m 86 0 l 86 694 l 296 694 l 296 182 l 476 182 l 476 694 l 686 694 l 686 182 l 867 182 l 867 694 l 1076 694 l 1076 0 l 86 0 z "},"щ":{"ha":1231,"x_min":86,"x_max":1193,"o":"m 1193 182 l 1193 -169 l 1007 -169 l 1007 0 l 86 0 l 86 694 l 296 694 l 296 182 l 476 182 l 476 694 l 686 694 l 686 182 l 867 182 l 867 694 l 1076 694 l 1076 182 l 1193 182 z "},"ъ":{"ha":815,"x_min":26,"x_max":782,"o":"m 194 0 l 194 513 l 26 513 l 26 694 l 404 694 l 404 500 l 526 500 q 625 484 581 500 q 698 442 669 468 q 746 383 726 417 q 774 317 765 350 q 782 253 782 285 q 768 170 782 213 q 726 89 754 128 q 645 25 697 50 q 526 0 593 0 l 194 0 m 404 322 l 404 178 l 500 178 q 586 251 586 178 q 500 322 586 322 l 404 322 z "},"ы":{"ha":1060,"x_min":86,"x_max":974,"o":"m 764 0 l 764 694 l 974 694 l 974 0 l 764 0 m 86 0 l 86 694 l 296 694 l 296 500 l 418 500 q 517 484 472 500 q 590 442 561 468 q 638 383 618 417 q 665 317 657 350 q 674 253 674 285 q 660 170 674 213 q 617 89 646 128 q 537 25 589 50 q 418 0 485 0 l 86 0 m 296 322 l 296 178 l 392 178 q 478 251 478 178 q 392 322 478 322 l 296 322 z "},"ь":{"ha":707,"x_min":86,"x_max":674,"o":"m 86 0 l 86 694 l 296 694 l 296 500 l 418 500 q 517 484 472 500 q 590 442 561 468 q 638 383 618 417 q 665 317 657 350 q 674 253 674 285 q 660 170 674 213 q 617 89 646 128 q 537 25 589 50 q 418 0 485 0 l 86 0 m 296 322 l 296 178 l 392 178 q 478 251 478 178 q 392 322 478 322 l 296 322 z "},"э":{"ha":776,"x_min":31,"x_max":732,"o":"m 363 -15 q 165 40 256 -15 q 31 188 75 96 l 214 285 q 363 181 260 181 q 456 210 415 181 q 513 289 496 239 l 300 289 l 300 422 l 506 422 q 447 489 486 464 q 363 514 408 514 q 214 410 260 514 l 31 507 q 165 654 75 599 q 363 710 256 710 q 625 607 518 710 q 732 347 732 504 q 625 88 732 190 q 363 -15 518 -15 z "},"ю":{"ha":1146,"x_min":86,"x_max":1101,"o":"m 746 -15 q 525 61 619 -15 q 401 256 431 138 l 296 256 l 296 0 l 86 0 l 86 694 l 296 694 l 296 438 l 400 438 q 524 633 429 557 q 746 710 618 710 q 999 604 897 710 q 1101 347 1101 499 q 999 90 1101 196 q 746 -15 897 -15 m 641 227 q 661 204 641 227 q 746 181 681 181 q 851 226 811 181 q 890 347 890 272 q 851 468 890 422 q 746 514 811 514 q 640 469 679 514 q 601 349 601 424 q 641 227 601 274 z "},"я":{"ha":758,"x_min":-18,"x_max":672,"o":"m -18 0 l 211 264 q 96 457 96 328 q 164 628 96 563 q 351 694 232 694 l 672 694 l 672 0 l 463 0 l 463 210 l 403 210 l 215 0 l -18 0 m 364 376 l 463 376 l 463 528 l 363 528 q 292 447 292 528 q 313 396 292 415 q 364 376 335 376 z "},"ё":{"ha":801,"x_min":44,"x_max":756,"o":"m 414 -15 q 151 84 257 -15 q 44 347 44 183 q 149 606 44 503 q 410 710 253 710 q 656 621 556 710 q 756 371 756 532 q 751 297 756 331 l 247 297 q 304 206 256 238 q 417 175 353 175 q 518 198 474 175 q 585 254 563 221 l 740 138 q 606 26 690 67 q 414 -15 521 -15 m 253 435 l 547 435 q 494 513 535 486 q 404 539 454 539 q 308 513 351 539 q 253 435 265 488 m 246 794 q 167 827 200 794 q 133 904 133 860 q 166 984 133 951 q 246 1017 199 1017 q 323 983 290 1017 q 356 904 356 950 q 323 827 356 860 q 246 794 290 794 m 653 827 q 637 811 653 827 q 575 794 621 794 q 497 827 529 794 q 464 904 464 860 q 497 984 464 951 q 575 1017 529 1017 q 653 984 621 1017 q 686 904 686 951 q 653 827 686 860 z "},"–":{"ha":824,"x_min":76,"x_max":747,"o":"m 76 289 l 76 489 l 747 489 l 747 289 l 76 289 z "},"—":{"ha":1318,"x_min":76,"x_max":1242,"o":"m 76 289 l 76 489 l 1242 489 l 1242 289 l 76 289 z "},"₽":{"ha":861,"x_min":67,"x_max":822,"o":"m 67 344 l 67 546 l 185 546 l 185 986 l 485 986 q 727 897 632 986 q 822 664 822 808 q 727 432 822 519 q 485 344 632 344 l 394 344 l 394 253 l 603 253 l 603 172 l 394 172 l 394 0 l 185 0 l 185 172 l 67 172 l 67 253 l 185 253 l 185 344 l 67 344 m 394 546 l 483 546 q 574 576 540 546 q 608 664 608 607 q 574 753 608 724 q 483 783 540 783 l 394 783 l 394 546 z "}}}
